<svg width="25" height="22" fill="none" xmlns="http://www.w3.org/2000/svg"><path d="M12.533 0C6.16 0 .978 4.935.978 11c0 6.066 5.183 11 11.555 11 6.37 0 11.554-4.934 11.554-11 0-6.065-5.183-11-11.554-11zm0 19.8c-5.097 0-9.244-3.948-9.244-8.8s4.147-8.8 9.244-8.8c5.096 0 9.243 3.948 9.243 8.8s-4.147 8.8-9.243 8.8z" fill="#000"/><path d="M15.8 14.111a4.683 4.683 0 01-2.334 1.2 4.981 4.981 0 01-1.867 0 4.924 4.924 0 01-.866-.256 4.888 4.888 0 01-.784-.405 4.65 4.65 0 01-1.25-1.19l-1.916 1.229c.248.35.534.68.847.978A6.955 6.955 0 009.878 17.1a7.226 7.226 0 002.653.504c.911 0 1.813-.171 2.654-.503a6.955 6.955 0 002.249-1.433c.314-.298.6-.628.848-.98l-1.916-1.229a4.453 4.453 0 01-.566.651zM8.488 11c.958 0 1.734-.739 1.734-1.65 0-.911-.776-1.65-1.734-1.65-.957 0-1.733.739-1.733 1.65 0 .911.776 1.65 1.733 1.65zm8.089-2.2c-2.311 0-2.889 2.2-2.889 2.2h5.777s-.579-2.2-2.888-2.2z" fill="#000"/></svg>