<svg width="28" height="21" fill="none" xmlns="http://www.w3.org/2000/svg"><path d="M27.486 2.495c-.98.41-2.046.705-3.145.82a5.316 5.316 0 002.402-2.92 10.984 10.984 0 01-3.465 1.28 5.45 5.45 0 00-1.815-1.24A5.592 5.592 0 0019.288 0c-3.026 0-5.46 2.38-5.46 5.3 0 .41.051.82.134 1.214C9.431 6.284 5.39 4.184 2.702.97a5.14 5.14 0 00-.742 2.675c0 1.84.964 3.46 2.434 4.414a5.637 5.637 0 01-2.47-.674v.065c0 2.576 1.877 4.71 4.378 5.2-.47.12-.952.18-1.438.181-.355 0-.691-.034-1.03-.08.69 2.1 2.705 3.625 5.104 3.674a11.16 11.16 0 01-6.78 2.265c-.458 0-.88-.016-1.319-.065A15.812 15.812 0 009.226 21c10.043 0 15.538-8.07 15.538-15.076 0-.23 0-.46-.016-.69a11.577 11.577 0 002.738-2.74z" fill="#fff"/></svg>